<svg xmlns="http://www.w3.org/2000/svg" width="21.757" height="31.054"><g data-name="グループ 2325"><g data-name="グループ 2324"><path data-name="パス 11558" d="M10.878 6.131a5.307 5.307 0 1 0 5.307 5.307 5.313 5.313 0 0 0-5.307-5.307Z" fill="#df7e2c"/></g></g><g data-name="グループ 2327"><g data-name="グループ 2326"><path data-name="パス 11559" d="m9.686 24.252-.029-.026-.676-.612-1.591-1.44-1.73.186-1.059.113-.251.027-.811.09L.993 28l3.946.05 2.552 3 2.9-6.165Z" fill="#df7e2c"/></g></g><g data-name="グループ 2329"><g data-name="グループ 2328"><path data-name="パス 11560" d="m18.215 22.59-.808-.087-.251-.027-1.059-.114-1.73-.186-1.591 1.44-.676.612-.029.026-.705.638 2.9 6.165 2.552-3 3.943-.052Z" fill="#df7e2c"/></g></g><g data-name="グループ 2331"><g data-name="グループ 2330"><path data-name="パス 11561" d="m20.173 11.438 1.58-3.538-3.355-1.925-.8-3.79-3.845.415L10.878 0 8.006 2.6l-3.853-.415-.8 3.79L0 7.9l1.583 3.534L0 14.968 3.359 16.9l.8 3.79.294-.032 1.059-.114 1.059-.113.284-.03 1.155-.124.868.785.916.829.286.258.42.38.382.346.382-.346.42-.38.286-.258.713-.644 1.072-.97 1.872.2.19.021.435.047 1.059.114.294.032.8-3.79 3.348-1.929Zm-9.295 7.127a7.127 7.127 0 1 1 7.127-7.127 7.135 7.135 0 0 1-7.127 7.127Z" fill="#df7e2c"/></g></g></svg>